<?xml version="1.0" encoding="UTF-8" standalone="no"?>
<!-- Created with Inkscape (http://www.inkscape.org/) -->

<svg
   width="499.99997mm"
   height="399.99991mm"
   viewBox="0 0 499.99997 399.99991"
   version="1.1"
   id="svg238"
   inkscape:export-filename="bitmap.svg"
   inkscape:export-xdpi="152.40002"
   inkscape:export-ydpi="152.40002"
   xmlns:inkscape="http://www.inkscape.org/namespaces/inkscape"
   xmlns:sodipodi="http://sodipodi.sourceforge.net/DTD/sodipodi-0.dtd"
   xmlns="http://www.w3.org/2000/svg"
   xmlns:svg="http://www.w3.org/2000/svg">
  <sodipodi:namedview
     id="namedview240"
     pagecolor="#ffffff"
     bordercolor="#000000"
     borderopacity="0.25"
     inkscape:showpageshadow="2"
     inkscape:pageopacity="0.0"
     inkscape:pagecheckerboard="0"
     inkscape:deskcolor="#d1d1d1"
     inkscape:document-units="mm"
     showgrid="false" />
  <defs
     id="defs235" />
  <g
     inkscape:label="Layer 1"
     inkscape:groupmode="layer"
     id="layer1">
    <path
       id="path241"
       style="fill:#000000;stroke-width:0.264583"
       d="M 9.93479,6.2565264e-5 C 4.42493,0.03472257 0,4.4816526 0,9.9999726 v 229.9999074 9.99991 a 150,150 0 0 0 150.00015,150.00013 150,150 0 0 0 100.00009,-38.19766 150,150 0 0 0 99.99958,38.19766 150,150 0 0 0 150.00014,-150.00013 150,150 0 0 0 -5.1e-4,-0.111 V 239.99988 199.99974 9.9999696 c 0,-5.53995 -4.4604,-9.999910034736 -10.00043,-9.999910034736 h -79.99977 c -5.5399,0 -9.9999,4.459960034736 -9.9999,9.999910034736 v 89.9996674 8.580403 91.41974 49.7427 a 49.999999,49.999999 0 0 1 0,5.2e-4 49.999999,49.999999 0 0 1 0,0.002 49.999999,49.999999 0 0 1 0,5.1e-4 49.999999,49.999999 0 0 1 0,0.002 49.999999,49.999999 0 0 1 0,5.2e-4 49.999999,49.999999 0 0 1 0,5.2e-4 49.999999,49.999999 0 0 1 0,0.002 49.999999,49.999999 0 0 1 0,5.1e-4 49.999999,49.999999 0 0 1 0,0.002 49.999999,49.999999 0 0 1 0,5.2e-4 49.999999,49.999999 0 0 1 0,0.002 49.999999,49.999999 0 0 1 0,5.2e-4 49.999999,49.999999 0 0 1 0,5.1e-4 49.999999,49.999999 0 0 1 0,0.002 49.999999,49.999999 0 0 1 0,5.2e-4 49.999999,49.999999 0 0 1 0,0.002 49.999999,49.999999 0 0 1 0,5.2e-4 49.999999,49.999999 0 0 1 0,0.002 49.999999,49.999999 0 0 1 0,5.2e-4 49.999999,49.999999 0 0 1 0,0.002 49.999999,49.999999 0 0 1 0,5.1e-4 49.999999,49.999999 0 0 1 0,5.2e-4 49.999999,49.999999 0 0 1 0,0.002 49.999999,49.999999 0 0 1 0,5.2e-4 49.999999,49.999999 0 0 1 0,0.002 49.999999,49.999999 0 0 1 0,5.1e-4 49.999999,49.999999 0 0 1 0,0.002 49.999999,49.999999 0 0 1 0,5.2e-4 49.999999,49.999999 0 0 1 0,5.2e-4 49.999999,49.999999 0 0 1 0,0.002 49.999999,49.999999 0 0 1 0,5.1e-4 49.999999,49.999999 0 0 1 0,0.002 49.999999,49.999999 0 0 1 0,5.2e-4 49.999999,49.999999 0 0 1 0,0.002 49.999999,49.999999 0 0 1 0,5.2e-4 49.999999,49.999999 0 0 1 0,5.2e-4 49.999999,49.999999 0 0 1 0,0.002 49.999999,49.999999 0 0 1 0,5.1e-4 49.999999,49.999999 0 0 1 0,0.002 49.999999,49.999999 0 0 1 0,5.2e-4 49.999999,49.999999 0 0 1 0,0.002 49.999999,49.999999 0 0 1 0,5.2e-4 49.999999,49.999999 0 0 1 0,0.002 49.999999,49.999999 0 0 1 0,5.1e-4 49.999999,49.999999 0 0 1 0,5.2e-4 49.999999,49.999999 0 0 1 0,0.002 49.999999,49.999999 0 0 1 0,5.2e-4 49.999999,49.999999 0 0 1 0,0.002 49.999999,49.999999 0 0 1 0,5.1e-4 49.999999,49.999999 0 0 1 0,0.002 49.999999,49.999999 0 0 1 0,5.2e-4 49.999999,49.999999 0 0 1 0,5.2e-4 49.999999,49.999999 0 0 1 0,0.002 49.999999,49.999999 0 0 1 0,5.2e-4 49.999999,49.999999 0 0 1 0,0.002 49.999999,49.999999 0 0 1 0,5.1e-4 49.999999,49.999999 0 0 1 0,0.002 49.999999,49.999999 0 0 1 0,5.2e-4 49.999999,49.999999 0 0 1 0,0.002 49.999999,49.999999 0 0 1 0,5.2e-4 49.999999,49.999999 0 0 1 0,5.1e-4 49.999999,49.999999 0 0 1 0,0.002 49.999999,49.999999 0 0 1 0,5.2e-4 49.999999,49.999999 0 0 1 0,0.002 49.999999,49.999999 0 0 1 0,5.2e-4 49.999999,49.999999 0 0 1 0,0.002 49.999999,49.999999 0 0 1 0,5.1e-4 49.999999,49.999999 0 0 1 0,5.2e-4 v 0.192 h 5.1e-4 a 49.999999,49.999999 0 0 1 -50.00004,50.00025 49.999999,49.999999 0 0 1 -50.00005,-50.00005 h -5.2e-4 V 199.99974 108.58051 99.999637 9.9999696 c 0,-5.53995 -4.4599,-9.999910034736 -9.9999,-9.999910034736 h -79.99976 c -5.54,0 -9.9999,4.459960034736 -9.9999,9.999910034736 v 89.9996674 8.579803 141.28337 0.41099 a 49.999999,49.999999 0 0 1 -49.99954,49.72604 49.999999,49.999999 0 0 1 -50.00005,-50.00005 h -5.22e-4 V 199.99974 108.58051 99.999637 9.9999696 c 0,-5.53996 -4.4599,-9.999910034736 -9.9999,-9.999910034736 H 9.99991 c -0.0216,0 -0.0435,-1.36e-4 -0.0651,3e-6 z" />
  </g>
</svg>
