<?xml version="1.0" encoding="UTF-8" standalone="no"?>
<!-- Created with Inkscape (http://www.inkscape.org/) -->

<svg
   width="1849.9977mm"
   height="399.99994mm"
   viewBox="0 0 18.499977 3.9999994"
   version="1.1"
   id="svg5"
   xmlns="http://www.w3.org/2000/svg"
   xmlns:svg="http://www.w3.org/2000/svg">
  <defs
     id="defs2" />
  <g
     id="layer2"
     transform="translate(-1.2241509e-5)">
    <path
       id="path241"
       style="opacity:1;fill:#000000;stroke-width:0.00264583"
       d="M 0.09936014,3.2238847e-6 C 0.04426154,3.4978388e-4 1.224151e-5,0.04481912 1.224151e-5,0.10000232 V 2.4000014 2.5000005 A 1.5,1.5 0 0 0 1.5000137,4.0000019 1.5,1.5 0 0 0 2.5000146,3.6180253 1.5,1.5 0 0 0 3.5000105,4.0000019 1.5,1.5 0 0 0 5.0000119,2.5000005 a 1.5,1.5 0 0 0 -5.1e-6,-0.00111 V 2.4000014 2 0.10000229 C 5.0000068,0.04460279 4.9554028,3.193885e-6 4.9000025,3.193885e-6 H 4.1000048 c -0.055399,0 -0.099999,0.044599596115 -0.099999,0.099999096115 v 0.89999669 0.085804 0.9141974 0.497427 a 0.5,0.5 0 0 1 0,5.2e-6 0.5,0.5 0 0 1 0,1.55e-5 0.5,0.5 0 0 1 0,5.1e-6 0.5,0.5 0 0 1 0,1.55e-5 0.5,0.5 0 0 1 0,5.2e-6 0.5,0.5 0 0 1 0,5.2e-6 0.5,0.5 0 0 1 0,1.55e-5 0.5,0.5 0 0 1 0,5.1e-6 0.5,0.5 0 0 1 0,1.55e-5 0.5,0.5 0 0 1 0,5.2e-6 0.5,0.5 0 0 1 0,1.55e-5 0.5,0.5 0 0 1 0,5.2e-6 0.5,0.5 0 0 1 0,5.1e-6 0.5,0.5 0 0 1 0,1.55e-5 0.5,0.5 0 0 1 0,5.2e-6 0.5,0.5 0 0 1 0,1.55e-5 0.5,0.5 0 0 1 0,5.2e-6 0.5,0.5 0 0 1 0,1.55e-5 0.5,0.5 0 0 1 0,5.2e-6 0.5,0.5 0 0 1 0,1.55e-5 0.5,0.5 0 0 1 0,5.1e-6 0.5,0.5 0 0 1 0,5.2e-6 0.5,0.5 0 0 1 0,1.55e-5 0.5,0.5 0 0 1 0,5.2e-6 0.5,0.5 0 0 1 0,1.55e-5 0.5,0.5 0 0 1 0,5.1e-6 0.5,0.5 0 0 1 0,1.55e-5 0.5,0.5 0 0 1 0,5.2e-6 0.5,0.5 0 0 1 0,5.2e-6 0.5,0.5 0 0 1 0,1.55e-5 0.5,0.5 0 0 1 0,5.1e-6 0.5,0.5 0 0 1 0,1.55e-5 0.5,0.5 0 0 1 0,5.2e-6 0.5,0.5 0 0 1 0,1.55e-5 0.5,0.5 0 0 1 0,5.2e-6 0.5,0.5 0 0 1 0,5.2e-6 0.5,0.5 0 0 1 0,1.55e-5 0.5,0.5 0 0 1 0,5.1e-6 0.5,0.5 0 0 1 0,1.55e-5 0.5,0.5 0 0 1 0,5.2e-6 0.5,0.5 0 0 1 0,1.55e-5 0.5,0.5 0 0 1 0,5.2e-6 0.5,0.5 0 0 1 0,1.55e-5 0.5,0.5 0 0 1 0,5.1e-6 0.5,0.5 0 0 1 0,5.2e-6 0.5,0.5 0 0 1 0,1.55e-5 0.5,0.5 0 0 1 0,5.2e-6 0.5,0.5 0 0 1 0,1.55e-5 0.5,0.5 0 0 1 0,5.1e-6 0.5,0.5 0 0 1 0,1.55e-5 0.5,0.5 0 0 1 0,5.2e-6 0.5,0.5 0 0 1 0,5.2e-6 0.5,0.5 0 0 1 0,1.55e-5 0.5,0.5 0 0 1 0,5.2e-6 0.5,0.5 0 0 1 0,1.55e-5 0.5,0.5 0 0 1 0,5.1e-6 0.5,0.5 0 0 1 0,1.55e-5 0.5,0.5 0 0 1 0,5.2e-6 0.5,0.5 0 0 1 0,1.55e-5 0.5,0.5 0 0 1 0,5.2e-6 0.5,0.5 0 0 1 0,5.1e-6 0.5,0.5 0 0 1 0,1.55e-5 0.5,0.5 0 0 1 0,5.2e-6 0.5,0.5 0 0 1 0,1.55e-5 0.5,0.5 0 0 1 0,5.2e-6 0.5,0.5 0 0 1 0,1.55e-5 0.5,0.5 0 0 1 0,5.1e-6 0.5,0.5 0 0 1 0,5.2e-6 v 0.00192 h 5.1e-6 A 0.5,0.5 0 0 1 3.5000105,3.000001 0.5,0.5 0 0 1 3.00001,2.5000005 h -5.2e-6 V 2 1.0858077 0.99999898 0.10000229 C 3.0000048,0.04460279 2.9554058,3.193885e-6 2.9000058,3.193885e-6 H 2.1000081 c -0.0554,0 -0.099999,0.044599596115 -0.099999,0.099999096115 v 0.89999669 0.085798 1.4128337 0.00411 A 0.5,0.5 0 0 1 1.5000137,3.000001 0.5,0.5 0 0 1 1.0000132,2.5000005 h -5.2e-6 V 2 1.0858077 0.99999898 0.10000229 C 1.000008,0.04460269 0.955409,3.193885e-6 0.900009,3.193885e-6 H 0.10001127 c -2.1641e-4,0 -4.3505e-4,-1.36e-6 -6.5113e-4,2.99997e-8 z" />
    <path
       id="path469"
       style="opacity:1;fill:#000000;stroke-width:0.00264583"
       d="M 7.500004,3.2238847e-6 A 1.9999975,1.9999975 0 0 0 5.5000021,2 1.9999975,1.9999975 0 0 0 7.500004,3.9999968 1.9999975,1.9999975 0 0 0 9.5000008,2 1.9999975,1.9999975 0 0 0 7.500004,3.2238847e-6 Z m 0,0.9999957561153 A 0.99999875,0.99999875 0 0 1 8.4999999,2 0.99999875,0.99999875 0 0 1 7.500004,2.9999958 0.99999875,0.99999875 0 0 1 6.5000031,2 0.99999875,0.99999875 0 0 1 7.500004,0.99999898 Z" />
    <path
       id="rect477"
       style="opacity:1;fill:#000000;stroke-width:0.00264583"
       d="m 10.1,3.2238847e-6 c -0.0554,0 -0.1000048,0.044599096115 -0.1000048,0.099999096115 V 3.8999977 c 0,0.0554 0.04461,0.099999 0.1000048,0.099999 h 0.499349 0.300648 1.499997 c 0.0554,0 0.1,-0.044599 0.1,-0.099999 V 3.1 c 0,-0.0554 -0.0446,-0.1000042 -0.1,-0.1000042 H 10.999996 V 0.10000229 c 0,-0.0553999 -0.0446,-0.099999096115 -0.1,-0.099999096115 z" />
    <path
       id="rect482"
       style="opacity:1;fill:#000000;stroke-width:0.00264583"
       d="m 13.099992,3.2238847e-6 c -0.0554,0 -0.1,0.044599296115 -0.1,0.099999096115 V 3.8999977 c 0,0.0554 0.0446,0.099999 0.1,0.099999 h 0.800003 c 0.0554,0 0.1,-0.044599 0.1,-0.099999 V 2.5000005 h 0.899997 c 0.0554,0 0.1,-0.044599 0.1,-0.099999 V 1.5999986 c 0,-0.0554 -0.0446,-0.099999 -0.1,-0.099999 H 13.999994 V 0.99999898 h 1.399997 c 0.0554,0 0.1,-0.044599 0.1,-0.099999 V 0.10000229 c 0,-0.0553997 -0.0446,-0.099999096115 -0.1,-0.099999096115 h -1.499996 -0.300653 z" />
    <path
       id="rect489"
       style="opacity:1;fill:#000000;stroke-width:0.00264583"
       d="m 16.09999,3.2238847e-6 c -0.0554,0 -0.1,0.044599496115 -0.1,0.099999096115 V 3.8999977 c 0,0.0554 0.0446,0.099999 0.1,0.099999 h 0.499349 0.300649 1.500001 c 0.0554,0 0.1,-0.0446 0.1,-0.099999 V 3.0999949 c 0,-0.055399 -0.0446,-0.099999 -0.1,-0.099999 H 16.999987 V 2.5000005 h 0.900002 c 0.0554,0 0.1,-0.0446 0.1,-0.099999 V 1.5999986 c 0,-0.0554 -0.0446,-0.099999 -0.1,-0.099999 H 16.999987 V 0.99999898 h 1.400002 c 0.0554,0 0.1,-0.0446 0.1,-0.099999 V 0.10000229 c 0,-0.0553995 -0.0446,-0.099999096115 -0.1,-0.099999096115 h -1.500001 z" />
  </g>
</svg>
